<?xml version="1.0" encoding="UTF-8"?>
<svg version="1.1" xmlns="http://www.w3.org/2000/svg" width="40" height="40">
<path d="M0 0 C3.81684226 1.55500981 6.19195732 4.03595495 9 7 C11.87981123 5.82674357 13.37938667 4.62061333 15.625 2.375 C16.40875 1.59125 17.1925 0.8075 18 0 C18.66 0 19.32 0 20 0 C20 0.66 20 1.32 20 2 C20.66 2 21.32 2 22 2 C20.44499019 5.81684226 17.96404505 8.19195732 15 11 C16.17325643 13.87981123 17.37938667 15.37938667 19.625 17.625 C22 20 22 20 22 22 C21.34 22 20.68 22 20 22 C20 22.66 20 23.32 20 24 C16.18315774 22.44499019 13.80804268 19.96404505 11 17 C8.12018877 18.17325643 6.62061333 19.37938667 4.375 21.625 C3.59125 22.40875 2.8075 23.1925 2 24 C1.34 24 0.68 24 0 24 C0 23.34 0 22.68 0 22 C-0.66 22 -1.32 22 -2 22 C-0.44499019 18.18315774 2.03595495 15.80804268 5 13 C3.82674357 10.12018877 2.62061333 8.62061333 0.375 6.375 C-0.40875 5.59125 -1.1925 4.8075 -2 4 C-2 3.34 -2 2.68 -2 2 C-1.34 2 -0.68 2 0 2 C0 1.34 0 0.68 0 0 Z " fill="#FFFFFF" transform="translate(10,8)"/>
</svg>
