<?xml version="1.0" encoding="UTF-8"?>
<svg version="1.1" xmlns="http://www.w3.org/2000/svg" width="40" height="40">
<path d="M0 0 C1.43352212 0.00015908 2.86704998 0.00585132 4.30053711 0.01586914 C5.43041298 0.01799156 5.43041298 0.01799156 6.58311462 0.02015686 C8.99807646 0.02577163 11.41294687 0.03832656 13.82788086 0.05102539 C15.46134307 0.05603849 17.09480672 0.06060173 18.72827148 0.06469727 C22.74067671 0.07574585 26.75301326 0.09302033 30.76538086 0.11352539 C31.14756853 1.76967196 31.47933188 3.43809563 31.76538086 5.11352539 C30.76538086 6.11352539 30.76538086 6.11352539 27.53076172 6.22705078 C26.0972396 6.2268917 24.66371173 6.22119946 23.23022461 6.21118164 C22.10034874 6.20905922 22.10034874 6.20905922 20.94764709 6.20689392 C18.53268526 6.20127915 16.11781485 6.18872422 13.70288086 6.17602539 C12.06941865 6.17101229 10.435955 6.16644905 8.80249023 6.16235352 C4.79008501 6.15130493 0.77774845 6.13403045 -3.23461914 6.11352539 C-3.61680681 4.45737882 -3.94857016 2.78895515 -4.23461914 1.11352539 C-3.23461914 0.11352539 -3.23461914 0.11352539 0 0 Z " fill="#FFFFFF" transform="translate(6.234619140625,26.886474609375)"/>
<path d="M0 0 C1.43352212 0.00015908 2.86704998 0.00585132 4.30053711 0.01586914 C5.43041298 0.01799156 5.43041298 0.01799156 6.58311462 0.02015686 C8.99807646 0.02577163 11.41294687 0.03832656 13.82788086 0.05102539 C15.46134307 0.05603849 17.09480672 0.06060173 18.72827148 0.06469727 C22.74067671 0.07574585 26.75301326 0.09302033 30.76538086 0.11352539 C31.14756853 1.76967196 31.47933188 3.43809563 31.76538086 5.11352539 C30.76538086 6.11352539 30.76538086 6.11352539 27.53076172 6.22705078 C26.0972396 6.2268917 24.66371173 6.22119946 23.23022461 6.21118164 C22.10034874 6.20905922 22.10034874 6.20905922 20.94764709 6.20689392 C18.53268526 6.20127915 16.11781485 6.18872422 13.70288086 6.17602539 C12.06941865 6.17101229 10.435955 6.16644905 8.80249023 6.16235352 C4.79008501 6.15130493 0.77774845 6.13403045 -3.23461914 6.11352539 C-3.61680681 4.45737882 -3.94857016 2.78895515 -4.23461914 1.11352539 C-3.23461914 0.11352539 -3.23461914 0.11352539 0 0 Z " fill="#FFFFFF" transform="translate(6.234619140625,16.886474609375)"/>
<path d="M0 0 C1.43352212 0.00015908 2.86704998 0.00585132 4.30053711 0.01586914 C5.43041298 0.01799156 5.43041298 0.01799156 6.58311462 0.02015686 C8.99807646 0.02577163 11.41294687 0.03832656 13.82788086 0.05102539 C15.46134307 0.05603849 17.09480672 0.06060173 18.72827148 0.06469727 C22.74067671 0.07574585 26.75301326 0.09302033 30.76538086 0.11352539 C31.14756853 1.76967196 31.47933188 3.43809563 31.76538086 5.11352539 C30.76538086 6.11352539 30.76538086 6.11352539 27.53076172 6.22705078 C26.0972396 6.2268917 24.66371173 6.22119946 23.23022461 6.21118164 C22.10034874 6.20905922 22.10034874 6.20905922 20.94764709 6.20689392 C18.53268526 6.20127915 16.11781485 6.18872422 13.70288086 6.17602539 C12.06941865 6.17101229 10.435955 6.16644905 8.80249023 6.16235352 C4.79008501 6.15130493 0.77774845 6.13403045 -3.23461914 6.11352539 C-3.61680681 4.45737882 -3.94857016 2.78895515 -4.23461914 1.11352539 C-3.23461914 0.11352539 -3.23461914 0.11352539 0 0 Z " fill="#FFFFFF" transform="translate(6.234619140625,6.886474609375)"/>
</svg>
